:version 1.10
:name ASF
:units
  mass 1
  length 1
  angle deg
:documentation
  ASF file generated by Kaydara
:root
  axis xyz
  order  tx ty tz rx ry rz
  position 0 0 0
  orientation 0 0 0
:bonedata
  begin
    id 1
    name lfemurDummy
    direction 0.61522 -0.761478 0.204097
    length 5.68318
    axis 0 -0 0 xyz
  end
  begin
    id 2
    name lfemur
    direction 0.34202 -0.939693 -5.84747e-008
    length 16.9147
    axis 0 -0 20 xyz
    dof rx ry rz
    limits( -inf , inf )
( -inf , inf )
( -inf , inf )

  end
  begin
    id 3
    name ltibia
    direction 0.34202 -0.939693 1.20839e-009
    length 18.0532
    axis 0 -0 20 xyz
    dof rz ry rx
    limits( -inf , inf )
( -inf , inf )
( -inf , inf )

  end
  begin
    id 4
    name lfoot
    direction 0.0841971 -0.23133 0.969225
    length 5.23822
    axis -90 7.62852e-016 20 xyz
    dof ry rx rz
    limits( -inf , inf )
( -inf , inf )
( -inf , inf )

  end
  begin
    id 5
    name ltoes
    direction 0 0 0
    length 0
    axis 0 0 0 xyz
    dof rz ry rx
    limits( -inf , inf )
( -inf , inf )
( -inf , inf )

  end
  begin
    id 6
    name rfemurDummy
    direction -0.625247 -0.75382 0.202044
    length 5.74091
    axis 0 -0 0 xyz
  end
  begin
    id 7
    name rfemur
    direction -0.34202 -0.939693 -1.47013e-008
    length 16.4922
    axis 0 -0 -20 xyz
    dof rx ry rz
    limits( -inf , inf )
( -inf , inf )
( -inf , inf )

  end
  begin
    id 8
    name rtibia
    direction -0.34202 -0.939693 -7.74345e-010
    length 18.2421
    axis 0 -0 -20 xyz
    dof rz ry rx
    limits( -inf , inf )
( -inf , inf )
( -inf , inf )

  end
  begin
    id 9
    name rfoot
    direction -0.124331 -0.341598 0.931586
    length 5.45787
    axis -90 -7.62852e-016 -20 xyz
    dof ry rx rz
    limits( -inf , inf )
( -inf , inf )
( -inf , inf )

  end
  begin
    id 10
    name rtoes
    direction 0 0 0
    length 0
    axis 0 0 0 xyz
    dof rz ry rx
    limits( -inf , inf )
( -inf , inf )
( -inf , inf )

  end
  begin
    id 11
    name lowerbackDummy
    direction 0 0 0
    length 0
    axis 0 -0 0 xyz
  end
  begin
    id 12
    name lowerback
    direction -0.0218484 0.994884 -0.0986304
    length 4.45607
    axis 0 -0 0 xyz
    dof rx ry rz
    limits( -inf , inf )
( -inf , inf )
( -inf , inf )

  end
  begin
    id 13
    name upperback
    direction -0.00973057 0.999717 -0.0217111
    length 4.47449
    axis 0 -0 0 xyz
    dof rx ry rz
    limits( -inf , inf )
( -inf , inf )
( -inf , inf )

  end
  begin
    id 14
    name thorax
    direction -0.000928171 0.999699 0.0245198
    length 4.50973
    axis 0 -0 0 xyz
    dof rx ry rz
    limits( -inf , inf )
( -inf , inf )
( -inf , inf )

  end
  begin
    id 15
    name rclavicle
    direction -0.9009 0.425937 -0.0834055
    length 7.28587
    axis 0 -0 0 xyz
    dof rx ry rz
    limits( -inf , inf )
( -inf , inf )
( -inf , inf )

  end
  begin
    id 16
    name rhumerus
    direction -1 -2.23604e-007 -1.42637e-007
    length 13.5704
    axis 180 30 90 xyz
    dof rx ry rz
    limits( -inf , inf )
( -inf , inf )
( -inf , inf )

  end
  begin
    id 17
    name rradius
    direction -1 5.68281e-008 -4.4952e-007
    length 8.06782
    axis 180 30 90 xyz
    dof rz ry rx
    limits( -inf , inf )
( -inf , inf )
( -inf , inf )

  end
  begin
    id 18
    name rwrist
    direction -1 1.51393e-007 1.38143e-007
    length 4.03391
    axis -90 -90 0 xyz
    dof rz rx ry
    limits( -inf , inf )
( -inf , inf )
( -inf , inf )

  end
  begin
    id 19
    name rthumb
    direction 0 0 0
    length 0
    axis 0 0 0 xyz
    dof ry rx rz
    limits( -inf , inf )
( -inf , inf )
( -inf , inf )

  end
  begin
    id 20
    name rhand
    direction -1 -3.34077e-007 -5.59631e-007
    length 1.29744
    axis -90 -90 0 xyz
    dof ry rx rz
    limits( -inf , inf )
( -inf , inf )
( -inf , inf )

  end
  begin
    id 21
    name rfingers
    direction 0 0 0
    length 0
    axis 0 0 0 xyz
    dof rz ry rx
    limits( -inf , inf )
( -inf , inf )
( -inf , inf )

  end
  begin
    id 22
    name lclavicle
    direction 0.940017 0.332249 -0.0773232
    length 8.29589
    axis 0 -0 0 xyz
    dof rx ry rz
    limits( -inf , inf )
( -inf , inf )
( -inf , inf )

  end
  begin
    id 23
    name lhumerus
    direction 1 7.41158e-008 -1.44768e-008
    length 12.0042
    axis 180 -30 -90 xyz
    dof rx ry rz
    limits( -inf , inf )
( -inf , inf )
( -inf , inf )

  end
  begin
    id 24
    name lradius
    direction 1 -1.32972e-007 3.10821e-007
    length 8.1902
    axis 180 -30 -90 xyz
    dof rz ry rx
    limits( -inf , inf )
( -inf , inf )
( -inf , inf )

  end
  begin
    id 25
    name lwrist
    direction 1 3.08957e-007 4.01394e-007
    length 4.09509
    axis -90 90 0 xyz
    dof rz rx ry
    limits( -inf , inf )
( -inf , inf )
( -inf , inf )

  end
  begin
    id 26
    name lthumb
    direction 0 0 0
    length 0
    axis 0 0 0 xyz
    dof ry rx rz
    limits( -inf , inf )
( -inf , inf )
( -inf , inf )

  end
  begin
    id 27
    name lhand
    direction 1 -1.64125e-007 -6.99514e-007
    length 1.37229
    axis -90 90 0 xyz
    dof ry rx rz
    limits( -inf , inf )
( -inf , inf )
( -inf , inf )

  end
  begin
    id 28
    name lfingers
    direction 0 0 0
    length 0
    axis 0 0 0 xyz
    dof rz ry rx
    limits( -inf , inf )
( -inf , inf )
( -inf , inf )

  end
  begin
    id 29
    name lowerneck
    direction -0.030798 0.998024 0.0547665
    length 3.93918
    axis 0 -0 0 xyz
    dof rx ry rz
    limits( -inf , inf )
( -inf , inf )
( -inf , inf )

  end
  begin
    id 30
    name upperneck
    direction 0.0531588 0.996611 -0.0627736
    length 3.95491
    axis 0 -0 0 xyz
    dof rx ry rz
    limits( -inf , inf )
( -inf , inf )
( -inf , inf )

  end
  begin
    id 31
    name head
    direction 0 0 0
    length 0
    axis 0 0 0 xyz
    dof rx ry rz
    limits( -inf , inf )
( -inf , inf )
( -inf , inf )

  end
:hierarchy
  begin
    root lfemurDummy rfemurDummy lowerbackDummy
    lfemurDummy lfemur
    lfemur ltibia
    ltibia lfoot
    lfoot ltoes
    rfemurDummy rfemur
    rfemur rtibia
    rtibia rfoot
    rfoot rtoes
    lowerbackDummy lowerback
    lowerback upperback
    upperback thorax
    thorax rclavicle lclavicle lowerneck
    rclavicle rhumerus
    rhumerus rradius
    rradius rwrist
    rwrist rthumb rhand
    rhand rfingers
    lclavicle lhumerus
    lhumerus lradius
    lradius lwrist
    lwrist lthumb lhand
    lhand lfingers
    lowerneck upperneck
    upperneck head
  end

:SAMPLES-PER-SECOND 30
:FULLY-SPECIFIED
:DEGREES
91
root  -4.018066812 36.33555615 8.246689143 140.0999756 -66.1269989 -146.0739746
lowerback  15.27810001 3.259680033 -10.56939983
upperback  4.684770107 1.745710015 -6.117849827
thorax  -3.706870079 0.6034359932 -0.8616570234
lowerneck  -0.3400639892 17.72540092 -4.128509998
upperneck  12.86470032 22.74769974 8.889900208
head  2.675869942 11.21049976 3.795389891
lclavicle  0 -9.442270133e-015 7.951389973e-016
lhumerus  24.47960091 25.11569977 52.02980042
lradius  1.007324541e-031 -3.384396742e-031 106.5749969
lwrist  -3.531125038e-031 7.062250077e-031 89.01049805
lhand  -1.496451383e-031 -27.76390076 20.11240005
lfingers  90 7.125020027 -90
lthumb  89.89689403 5.08795885 91.16245106
rclavicle  0 -9.442270133e-015 7.951389973e-016
rhumerus  -22.49790001 41.73189926 -69.35919952
rradius  6.457931128e-032 3.471569572e-031 79.46209717
rwrist  7.062250077e-031 7.062250077e-031 -45.6711998
rhand  -7.920061211e-032 -33.2840004 9.303460121
rfingers  -90 -7.125020027 -90
rthumb  -92.93752616 -24.25625642 -97.11982154
rfemur  -14.27089977 22.45569992 9.516409874
rtibia  -0 0 54.80550003
rfoot  -4.466135507e-032 -8.771069527 5.056529999
rtoes  5.373923086 19.29304026 -105.8922705
lfemur  -26.95240021 -2.397289991 10.73250008
ltibia  -0 0 66.65280151
lfoot  -0 -19.4564991 7.5447402
ltoes  -4.250644065 -19.5611806 -102.515957
92
root  -3.97391094 36.07244416 8.341222297 138.2050171 -66.03099823 -144.4110107
lowerback  15.87119961 2.81111002 -9.289299965
upperback  5.138050079 1.412220001 -5.186890125
thorax  -3.514139891 0.443787992 -0.5164800286
lowerneck  -0.306524992 17.84720039 -4.867720127
upperneck  12.24549961 23.06959915 7.756289959
head  2.497410059 11.31680012 3.488709927
lclavicle  0 -9.442270133e-015 7.951389973e-016
lhumerus  23.36709976 24.0678997 51.83269882
lradius  1.101430061e-031 -3.354950947e-031 108.1750031
lwrist  -7.062250077e-031 1.059337512e-030 88.12729645
lhand  -1.496451383e-031 -27.76390076 20.11240005
lfingers  90 7.125020027 -90
lthumb  89.89689403 5.08795885 91.16245106
rclavicle  0 -9.442270133e-015 7.951389973e-016
rhumerus  -22.20289993 41.9992981 -67.51159668
rradius  6.892992122e-032 3.463193704e-031 78.74320221
rwrist  0 -0 -45.97700119
rhand  -7.920061211e-032 -33.2840004 9.303460121
rfingers  -90 -7.125020027 -90
rthumb  -92.93752616 -24.25625642 -97.11982154
rfemur  -13.32929993 22.66150093 9.647950172
rtibia  -0 0 54.29520035
rfoot  -4.473707057e-032 -9.378689766 6.148849964
rtoes  5.373923086 19.29304026 -105.8922705
lfemur  -27.29910088 -2.48397994 10.95660019
ltibia  -0 0 67.52259827
lfoot  -0 -21.59810066 9.134329796
ltoes  -4.250644065 -19.5611806 -102.515957
93
root  -3.920799916 35.82044586 8.426067022 136.9439697 -65.81900024 -143.2630005
lowerback  16.29170036 2.693209887 -7.835840225
upperback  5.417089939 1.51552999 -4.572979927
thorax  -3.431550026 0.5004540086 -0.6953889728
lowerneck  0.2394379973 17.72769928 -4.433469772
upperneck  11.54590034 22.98349953 6.600269794
head  2.368129969 11.26309967 2.99567008
lclavicle  0 -9.442270133e-015 7.951389973e-016
lhumerus  22.30130005 21.73940086 51.73300171
lradius  1.185334132e-031 -3.32623316e-031 109.6139984
lwrist  -3.531125038e-031 1.059337512e-030 86.53549957
lhand  -1.496451383e-031 -27.76390076 20.11240005
lfingers  90 7.125020027 -90
lthumb  89.89689403 5.08795885 91.16245106
rclavicle  0 -9.442270133e-015 7.951389973e-016
rhumerus  -22.81119919 41.12509918 -66.71549988
rradius  7.357051449e-032 3.453633156e-031 77.97440338
rwrist  7.062250077e-031 5.296687558e-031 -46.40869904
rhand  -7.920061211e-032 -33.2840004 9.303460121
rfingers  -90 -7.125020027 -90
rthumb  -92.93752616 -24.25625642 -97.11982154
rfemur  -12.64050007 23.11829948 9.620189667
rtibia  -0 0 53.76599884
rfoot  -8.958576168e-032 -9.801469803 6.771530151
rtoes  5.373923086 19.29304026 -105.8922705
lfemur  -27.51980019 -2.458659887 11.34399986
ltibia  -0 0 68.03610229
lfoot  -0 -23.28510094 9.301600456
ltoes  -4.250644065 -19.5611806 -102.515957
94
root  -3.853066512 35.57422368 8.494288527 135.9299927 -65.63999939 -142.1790161
lowerback  16.51269913 2.601710081 -6.450049877
upperback  5.646190166 1.661149979 -4.002960205
thorax  -3.294450045 0.5789859891 -0.8928589821
lowerneck  0.5869719982 17.55809975 -3.933870077
upperneck  11.00459957 22.81620026 5.689700127
head  2.305639982 11.18330002 2.608789921
lclavicle  0 -9.442270133e-015 7.951389973e-016
lhumerus  21.06229973 19.20750046 51.86999893
lradius  1.256576922e-031 -3.299978557e-031 110.8460007
lwrist  -3.531125038e-031 7.062250077e-031 84.84169769
lhand  -1.496451383e-031 -27.76390076 20.11240005
lfingers  90 7.125020027 -90
lthumb  89.89689403 5.08795885 91.16245106
rclavicle  0 -9.442270133e-015 7.951389973e-016
rhumerus  -23.32859993 40.02420044 -66.2589035
rradius  7.924925612e-032 3.441046291e-031 77.0306015
rwrist  7.062250077e-031 7.062250077e-031 -47.20130157
rhand  -7.920061211e-032 -33.2840004 9.303460121
rfingers  -90 -7.125020027 -90
rthumb  -92.93752616 -24.25625642 -97.11982154
rfemur  -12.16689968 23.57460022 9.531709671
rtibia  -0 0 53.27840042
rfoot  -0 -10.17070007 7.111390114
rtoes  5.373923086 19.29304026 -105.8922705
lfemur  -27.87140083 -2.233139992 11.95079994
ltibia  -0 0 68.376297
lfoot  -0 -24.17790031 8.699230194
ltoes  -4.250644065 -19.5611806 -102.515957
95
root  -3.767244459 35.3506674 8.536822402 135.440979 -65.76699829 -141.3980103
lowerback  16.5387001 2.525259972 -5.418580055
upperback  5.739120007 1.781069994 -3.490289927
thorax  -3.201550007 0.6499590278 -0.9490240216
lowerneck  1.069689989 17.38559914 -3.622940063
upperneck  10.45790005 22.6196003 5.092299938
head  2.15783 11.0909996 2.318730116
lclavicle  0 -9.442270133e-015 7.951389973e-016
lhumerus  19.46349907 16.67840004 52.34759903
lradius  1.319753544e-031 -3.275224362e-031 111.9469986
lwrist  -3.531125038e-031 7.062250077e-031 83.1108017
lhand  -1.496451383e-031 -27.76390076 20.11240005
lfingers  90 7.125020027 -90
lthumb  89.89689403 5.08795885 91.16245106
rclavicle  0 -9.442270133e-015 7.951389973e-016
rhumerus  -23.92569923 38.84329987 -66.19020081
rradius  8.593023601e-032 3.424973502e-031 75.91560364
rwrist  0 7.062250077e-031 -48.3227005
rhand  -7.920061211e-032 -33.2840004 9.303460121
rfingers  -90 -7.125020027 -90
rthumb  -92.93752616 -24.25625642 -97.11982154
rfemur  -11.9282999 23.89159966 9.108309746
rtibia  -0 0 52.77209854
rfoot  -0 -10.64019966 7.417310238
rtoes  5.373923086 19.29304026 -105.8922705
lfemur  -28.52969933 -1.921210051 12.4296999
ltibia  -0 0 68.6414032
lfoot  -0 -24.30089951 8.335510254
ltoes  -4.250644065 -19.5611806 -102.515957
96
root  -3.681355574 35.19422276 8.549844186 135.9749756 -66.40399933 -141.6420288
lowerback  16.44239998 2.41602993 -5.212560177
upperback  5.744679928 1.719969988 -3.110699892
thorax  -3.149339914 0.6277800202 -0.6484689713
lowerneck  1.7579 17.40279961 -3.606349945
upperneck  9.833459854 22.65229988 4.759250164
head  1.877220035 11.1079998 2.105249882
lclavicle  0 -9.442270133e-015 7.951389973e-016
lhumerus  17.17679977 14.49110031 53.29710007
lradius  1.385051378e-031 -3.248149737e-031 113.0940018
lwrist  -7.062250077e-031 3.531125038e-031 81.03309631
lhand  -1.496451383e-031 -27.76390076 20.11240005
lfingers  90 7.125020027 -90
lthumb  89.89689403 5.08795885 91.16245106
rclavicle  0 -9.442270133e-015 7.951389973e-016
rhumerus  -24.30109978 38.0196991 -66.45149994
rradius  9.354002746e-032 3.404977293e-031 74.63890076
rwrist  7.062250077e-031 3.531125038e-031 -49.92430115
rhand  -7.920061211e-032 -33.2840004 9.303460121
rfingers  -90 -7.125020027 -90
rthumb  -92.93752616 -24.25625642 -97.11982154
rfemur  -11.65869999 24.13610077 8.062740326
rtibia  -0 0 52.10169983
rfoot  -0 -11.37310028 7.829209805
rtoes  5.373923086 19.29304026 -105.8922705
lfemur  -29.34790039 -1.719249964 12.25619984
ltibia  -0 0 68.87090302
lfoot  -0 -23.98489952 7.613520145
ltoes  -4.250644065 -19.5611806 -102.515957
